<svg xmlns="http://www.w3.org/2000/svg" width="48" height="49" fill="none" viewBox="0 0 48 49"><path fill="#F9AB00" d="M33.2729 5.73118V41.7312C33.2729 45.7594 36.052 48.0039 39.0002 48.0039C41.7275 48.0039 44.7275 46.0948 44.7275 41.7312V6.00391C44.7275 2.31118 42.0002 0.00390625 39.0002 0.00390625C36.0002 0.00390625 33.2729 2.54845 33.2729 5.73118Z"/><path fill="#E37400" d="M18.2729 24.0046V41.7319C18.2729 45.7601 21.052 48.0046 24.0002 48.0046C26.7275 48.0046 29.7275 46.0955 29.7275 41.7319V24.2773C29.7275 20.5846 27.0002 18.2773 24.0002 18.2773C21.0002 18.2773 18.2729 20.8219 18.2729 24.0046Z"/><path fill="#E37400" d="M9.00022 48.0034C12.1633 48.0034 14.7275 45.4392 14.7275 42.2761C14.7275 39.113 12.1633 36.5488 9.00022 36.5488C5.83714 36.5488 3.27295 39.113 3.27295 42.2761C3.27295 45.4392 5.83714 48.0034 9.00022 48.0034Z"/></svg>